<svg width="121" height="24" viewBox="0 0 121 24" fill="none" xmlns="http://www.w3.org/2000/svg">
<path d="M39.625 4H32.625C32.0946 4 31.5859 4.21071 31.2108 4.58579C30.8357 4.96086 30.625 5.46957 30.625 6V20C30.625 20.5304 30.8357 21.0391 31.2108 21.4142C31.5859 21.7893 32.0946 22 32.625 22H46.625C47.1554 22 47.6641 21.7893 48.0392 21.4142C48.4143 21.0391 48.625 20.5304 48.625 20V13" stroke="#624DE3" stroke-width="2" stroke-linecap="round" stroke-linejoin="round"/>
<path d="M47.125 2.50023C47.5228 2.1024 48.0624 1.87891 48.625 1.87891C49.1876 1.87891 49.7272 2.1024 50.125 2.50023C50.5228 2.89805 50.7463 3.43762 50.7463 4.00023C50.7463 4.56284 50.5228 5.1024 50.125 5.50023L40.625 15.0002L36.625 16.0002L37.625 12.0002L47.125 2.50023Z" stroke="#624DE3" stroke-width="2" stroke-linecap="round" stroke-linejoin="round"/>
<path d="M71.625 6H73.625H89.625" stroke="#A30D11" stroke-width="2" stroke-linecap="round" stroke-linejoin="round"/>
<path d="M76.625 6V4C76.625 3.46957 76.8357 2.96086 77.2108 2.58579C77.5859 2.21071 78.0946 2 78.625 2H82.625C83.1554 2 83.6641 2.21071 84.0392 2.58579C84.4143 2.96086 84.625 3.46957 84.625 4V6M87.625 6V20C87.625 20.5304 87.4143 21.0391 87.0392 21.4142C86.6641 21.7893 86.1554 22 85.625 22H75.625C75.0946 22 74.5859 21.7893 74.2108 21.4142C73.8357 21.0391 73.625 20.5304 73.625 20V6H87.625Z" stroke="#A30D11" stroke-width="2" stroke-linecap="round" stroke-linejoin="round"/>
<path d="M78.625 11V17" stroke="#A30D11" stroke-width="2" stroke-linecap="round" stroke-linejoin="round"/>
<path d="M82.625 11V17" stroke="#A30D11" stroke-width="2" stroke-linecap="round" stroke-linejoin="round"/>
</svg>
